HIERARCHY
ROOT Hips
{
 OFFSET 0.000000 0.000000 0.000000
 CHANNELS 6 Xposition Yposition Zposition Yrotation Xrotation Zrotation
 JOINT Chest
 {
  OFFSET 0.000000 9.588913 -0.003946
  CHANNELS 3 Yrotation Xrotation Zrotation
  JOINT Chest2
  {
   OFFSET 0.000000 9.541882 0.008053
   CHANNELS 3 Yrotation Xrotation Zrotation
   JOINT Chest3
   {
    OFFSET 0.000000 9.501360 0.000000
    CHANNELS 3 Yrotation Xrotation Zrotation
    JOINT Chest4
    {
     OFFSET 0.000000 9.491660 0.000000
     CHANNELS 3 Yrotation Xrotation Zrotation
     JOINT Neck
     {
      OFFSET 0.000000 14.331917 0.000000
      CHANNELS 3 Yrotation Xrotation Zrotation
      JOINT Head
      {
       OFFSET 0.000000 8.884799 0.017034
       CHANNELS 3 Yrotation Xrotation Zrotation
       End Site
       {
        OFFSET 0.000000 16.896195 0.008993
       }
      }
     }
     JOINT RightCollar
     {
      OFFSET -2.923010 9.499495 0.000000
      CHANNELS 3 Yrotation Xrotation Zrotation
      JOINT RightShoulder
      {
       OFFSET -13.795216 0.000000 0.000000
       CHANNELS 3 Yrotation Xrotation Zrotation
       JOINT RightElbow
       {
        OFFSET -30.272209 0.000000 0.000000
        CHANNELS 3 Yrotation Xrotation Zrotation
        JOINT RightWrist
        {
         OFFSET -24.478199 0.000000 0.000000
         CHANNELS 3 Yrotation Xrotation Zrotation
         End Site
         {
          OFFSET -18.090752 0.000000 0.000000
         }
        }
       }
      }
     }
     JOINT LeftCollar
     {
      OFFSET 2.923010 9.499495 0.000000
      CHANNELS 3 Yrotation Xrotation Zrotation
      JOINT LeftShoulder
      {
       OFFSET 13.795216 0.000000 0.000000
       CHANNELS 3 Yrotation Xrotation Zrotation
       JOINT LeftElbow
       {
        OFFSET 30.272209 0.000000 0.000000
        CHANNELS 3 Yrotation Xrotation Zrotation
        JOINT LeftWrist
        {
         OFFSET 24.478199 0.000000 0.000000
         CHANNELS 3 Yrotation Xrotation Zrotation
         End Site
         {
          OFFSET 18.090752 0.000000 0.000000
         }
        }
       }
      }
     }
    }
   }
  }
 }
 JOINT RightHip
 {
  OFFSET -7.826875 0.019532 0.001973
  CHANNELS 3 Yrotation Xrotation Zrotation
  JOINT RightKnee
  {
   OFFSET 0.000000 -40.546152 -0.001885
   CHANNELS 3 Yrotation Xrotation Zrotation
   JOINT RightAnkle
   {
    OFFSET 0.000000 -39.417092 -0.003189
    CHANNELS 3 Yrotation Xrotation Zrotation
    JOINT RightToe
    {
     OFFSET 0.000000 -7.579396 17.243563
     CHANNELS 3 Yrotation Xrotation Zrotation
     End Site
     {
      OFFSET 0.000000 -1.500329 6.694466
     }
    }
   }
  }
 }
 JOINT LeftHip
 {
  OFFSET 7.826875 0.019532 0.001973
  CHANNELS 3 Yrotation Xrotation Zrotation
  JOINT LeftKnee
  {
   OFFSET 0.000000 -40.546152 -0.001885
   CHANNELS 3 Yrotation Xrotation Zrotation
   JOINT LeftAnkle
   {
    OFFSET 0.000000 -39.417092 -0.003189
    CHANNELS 3 Yrotation Xrotation Zrotation
    JOINT LeftToe
    {
     OFFSET 0.000000 -7.579396 17.243563
     CHANNELS 3 Yrotation Xrotation Zrotation
     End Site
     {
      OFFSET 0.000000 -1.500329 6.694466
     }
    }
   }
  }
 }
}
MOTION
Frames: 11
Frame Time: 0.008333
0.000000 87.345680 0.000000 0.000000 -5.767889 0.000000 0.000000 11.653876 0.000000 0.000000 -5.885988 0.000000 0.000000 -0.000000 0.000000 0.000000 -0.000000 0.000000 0.000000 12.528808 0.000000 0.000000 0.711711 0.000000 0.000000 -0.000000 0.000000 0.000000 -0.000000 0.000000 2.309063 -0.000000 0.000000 -2.309063 -0.000000 -0.000000 0.000000 -0.000000 0.000000 0.000000 0.000000 0.000000 -2.309063 0.000000 0.000000 2.309063 -0.000000 0.000000 0.000000 8.520374 0.000000 0.000000 1.905768 0.000000 -0.000000 -4.658254 0.000000 0.000000 -0.000000 0.000000 0.000000 8.520374 0.000000 0.000000 1.905768 0.000000 -0.000000 -4.658254 0.000000 0.000000 -0.000000 0.000000
0.250761 88.199686 -20.340114 132.667577 -9.549232 0.639056 -0.112703 3.361131 0.741439 -0.090929 1.910384 0.514522 -0.110994 2.388101 0.642768 -0.090929 1.910384 0.514522 -2.390366 29.760994 -0.425005 -2.555356 7.507482 0.068635 -8.085173 3.246367 -2.600879 3.855192 -0.480754 89.122270 0.793357 4.910930 -0.135743 1.918709 -1.914647 -1.836899 1.151020 3.329548 -2.467724 -1.988213 -2.763639 -89.047502 -1.462219 9.093090 -0.925844 -1.068471 7.241350 1.273643 -5.315226 -2.192374 -8.348286 2.914449 14.012480 -0.904396 2.786516 -2.972164 5.227418 0.016682 -0.232478 0.010118 10.854877 18.158721 -0.254479 10.263860 -0.821059 0.745355 3.279546 -7.975870 -0.535946 0.021829 0.208325 0.027378
0.246321 88.199938 -20.358753 132.663852 -9.538576 0.634416 -0.127978 3.358354 0.743615 -0.099708 1.907673 0.517164 -0.121959 2.384726 0.646025 -0.099708 1.907673 0.517164 -2.388348 29.750244 -0.420958 -2.553901 7.493153 0.072710 -8.079843 3.247659 -2.597901 3.860151 -0.485525 89.125774 0.781616 4.905931 -0.141599 1.911666 -1.914636 -1.833966 1.129553 3.323551 -2.470643 -2.057368 -2.770065 -89.021555 -1.459529 9.150511 -0.952184 -1.063690 7.253839 1.261887 -5.317054 -2.200938 -8.353050 2.911629 14.013484 -0.909922 2.794104 -2.964403 5.244399 0.014893 -0.232724 0.007329 10.868619 18.156765 -0.258540 10.254215 -0.822362 0.747053 3.280452 -7.976087 -0.539647 0.020662 0.205401 0.031505
0.241203 88.200241 -20.380361 132.658785 -9.526691 0.630592 -0.141800 3.354587 0.745917 -0.107656 1.904776 0.519919 -0.131885 2.381116 0.649429 -0.107656 1.904776 0.519919 -2.388678 29.741793 -0.417674 -2.554912 7.481953 0.076458 -8.076022 3.253152 -2.596561 3.863503 -0.494769 89.129544 0.768825 4.899971 -0.146909 1.904409 -1.911698 -1.830492 1.106746 3.318654 -2.476738 -2.118108 -2.774596 -88.994747 -1.462754 9.202303 -0.980539 -1.055571 7.272992 1.254249 -5.318554 -2.210500 -8.359719 2.910918 14.014924 -0.915634 2.799131 -2.957156 5.263717 0.013925 -0.233271 0.004669 10.882352 18.150571 -0.266679 10.241694 -0.814970 0.754073 3.282283 -7.980142 -0.544199 0.020052 0.201773 0.034008
0.235445 88.200477 -20.403978 132.658200 -9.512691 0.627592 -0.156654 3.349713 0.748659 -0.116395 1.901363 0.522839 -0.142800 2.376863 0.653035 -0.116395 1.901363 0.522839 -2.389920 29.734981 -0.415648 -2.556670 7.472952 0.079011 -8.072376 3.262601 -2.598021 3.864632 -0.506201 89.132559 0.758917 4.896983 -0.151280 1.897331 -1.909715 -1.828331 1.083894 3.315598 -2.484791 -2.166631 -2.778399 -88.972265 -1.469253 9.250739 -1.008302 -1.045496 7.292525 1.247905 -5.320168 -2.221403 -8.368839 2.909909 14.017497 -0.920634 2.799101 -2.951309 5.282912 0.013728 -0.233992 0.003537 10.887206 18.139081 -0.279137 10.227410 -0.799773 0.762599 3.286827 -7.987627 -0.546051 0.020266 0.198566 0.034152
0.229420 88.200534 -20.428625 132.662376 -9.496798 0.624602 -0.173549 3.344040 0.752156 -0.126524 1.897428 0.526034 -0.155452 2.371959 0.656977 -0.126524 1.897428 0.526034 -2.390505 29.728808 -0.415040 -2.557386 7.464769 0.079841 -8.067136 3.274054 -2.601754 3.864696 -0.517629 89.135659 0.752485 4.899164 -0.155512 1.890650 -1.911032 -1.829834 1.065197 3.315108 -2.493336 -2.198412 -2.782402 -88.955346 -1.477156 9.300980 -1.034043 -1.033914 7.311225 1.241390 -5.318730 -2.233310 -8.377718 2.907803 14.021908 -0.927720 2.792729 -2.947035 5.303344 0.013835 -0.235006 0.003635 10.879556 18.121542 -0.295230 10.214492 -0.775685 0.771328 3.295917 -7.999928 -0.544496 0.021248 0.196880 0.032131
0.223399 88.200320 -20.453713 132.665001 -9.479592 0.622668 -0.191232 3.337656 0.756454 -0.137063 1.893253 0.529342 -0.168617 2.366757 0.661060 -0.137063 1.893253 0.529342 -2.390606 29.722347 -0.415968 -2.557212 7.456175 0.078860 -8.057864 3.286732 -2.609203 3.862047 -0.530627 89.141244 0.746108 4.903489 -0.161633 1.883669 -1.915356 -1.831931 1.052606 3.317134 -2.501714 -2.213593 -2.787475 -88.944144 -1.484817 9.354430 -1.057326 -1.022487 7.324134 1.236167 -5.307574 -2.247006 -8.385884 2.901824 14.029696 -0.938462 2.783915 -2.944657 5.326651 0.013871 -0.236086 0.003725 10.866874 18.099708 -0.314915 10.205305 -0.744591 0.782006 3.306399 -8.016288 -0.541580 0.022483 0.196318 0.028810
0.217672 88.199795 -20.479038 132.663063 -9.462605 0.622285 -0.207893 3.331027 0.761359 -0.146912 1.889240 0.532582 -0.180918 2.361756 0.665060 -0.146912 1.889240 0.532582 -2.390855 29.714629 -0.417423 -2.557068 7.445913 0.077333 -8.045235 3.299303 -2.621204 3.854274 -0.544827 89.150200 0.738600 4.906657 -0.169338 1.876363 -1.920120 -1.832974 1.041931 3.318282 -2.508847 -2.214872 -2.792709 -88.938959 -1.489858 9.408186 -1.079043 -1.013021 7.326176 1.233170 -5.289009 -2.262244 -8.395371 2.892841 14.041246 -0.949143 2.777171 -2.944321 5.350530 0.013784 -0.236774 0.003452 10.858243 18.077309 -0.335606 10.199317 -0.710271 0.794022 3.313061 -8.034935 -0.538510 0.023552 0.196400 0.025287
0.212706 88.198995 -20.504608 132.661512 -9.448498 0.621402 -0.223198 3.325708 0.765861 -0.155933 1.885986 0.535391 -0.192186 2.357704 0.668527 -0.155933 1.885986 0.535391 -2.390650 29.705599 -0.416665 -2.556904 7.433912 0.078161 -8.033995 3.310195 -2.633068 3.846481 -0.556060 89.161530 0.733155 4.903479 -0.176021 1.871079 -1.924741 -1.835161 1.031394 3.313746 -2.511397 -2.212887 -2.793998 -88.937487 -1.493549 9.454253 -1.098993 -1.004461 7.325007 1.231760 -5.274106 -2.275920 -8.406118 2.886907 14.055391 -0.956331 2.771558 -2.946086 5.370885 0.013682 -0.236993 0.004332 10.852356 18.057304 -0.354332 10.196641 -0.674283 0.806733 3.314013 -8.055899 -0.536119 0.024792 0.197709 0.022422
0.208583 88.197947 -20.530442 132.662949 -9.437857 0.619077 -0.238290 3.321912 0.770011 -0.164797 1.883550 0.538058 -0.203257 2.354672 0.671816 -0.164797 1.883550 0.538058 -2.389403 29.696753 -0.414486 -2.555906 7.422136 0.080330 -8.024019 3.319384 -2.642523 3.842134 -0.562650 89.173079 0.731546 4.893303 -0.180025 1.869475 -1.930815 -1.838532 1.024850 3.304456 -2.510296 -2.217780 -2.791992 -88.938447 -1.495065 9.488717 -1.116451 -0.996799 7.326101 1.227807 -5.266750 -2.286276 -8.417093 2.884260 14.070089 -0.961505 2.767871 -2.949294 5.388498 0.013183 -0.236742 0.006061 10.846820 18.040727 -0.371108 10.195049 -0.638296 0.821281 3.311524 -8.078490 -0.534890 0.026137 0.200307 0.020068
0.205313 88.196699 -20.556563 132.664419 -9.430607 0.615129 -0.252933 3.319275 0.775574 -0.173517 1.882009 0.541496 -0.214144 2.352760 0.676069 -0.173517 1.882009 0.541496 -2.388052 29.688599 -0.413635 -2.554501 7.411266 0.081001 -8.013537 3.326393 -2.653812 3.838862 -0.565976 89.184262 0.732969 4.881098 -0.182866 1.870512 -1.935969 -1.840236 1.022859 3.294776 -2.510501 -2.226937 -2.790727 -88.940398 -1.496197 9.515777 -1.134473 -0.988866 7.330342 1.220210 -5.264086 -2.293367 -8.427631 2.881843 14.084719 -0.965741 2.768872 -2.952663 5.405973 0.011916 -0.236388 0.006624 10.845904 18.027956 -0.384562 10.188326 -0.602699 0.836265 3.312241 -8.102550 -0.533221 0.027167 0.203786 0.017462
